<mxfile host="app.diagrams.net" agent="Mozilla/5.0 (Windows NT 10.0; Win64; x64) AppleWebKit/537.36 (KHTML, like Gecko) Chrome/131.0.0.0 Safari/537.36" version="24.9.1">
  <diagram name="Trang-1" id="yoJFa_IEf_tTk7StN9Wt">
    <mxGraphModel dx="1877" dy="522" grid="1" gridSize="10" guides="1" tooltips="1" connect="1" arrows="1" fold="1" page="1" pageScale="1" pageWidth="827" pageHeight="1169" math="0" shadow="0">
      <root>
        <mxCell id="0" />
        <mxCell id="1" parent="0" />
        <mxCell id="fnLCLla4h_GprAgN6roi-1" value="Quản lý" style="shape=umlActor;verticalLabelPosition=bottom;verticalAlign=top;html=1;outlineConnect=0;" parent="1" vertex="1">
          <mxGeometry x="-110" y="120" width="30" height="60" as="geometry" />
        </mxCell>
        <mxCell id="fnLCLla4h_GprAgN6roi-2" value="Nhân viên" style="shape=umlActor;verticalLabelPosition=bottom;verticalAlign=top;html=1;outlineConnect=0;" parent="1" vertex="1">
          <mxGeometry x="870" y="140" width="30" height="60" as="geometry" />
        </mxCell>
        <mxCell id="fnLCLla4h_GprAgN6roi-3" value="Quản lý Nhân viên" style="ellipse;whiteSpace=wrap;html=1;" parent="1" vertex="1">
          <mxGeometry x="180" y="80" width="120" height="50" as="geometry" />
        </mxCell>
        <mxCell id="fnLCLla4h_GprAgN6roi-4" value="Quản lý tài khoản" style="ellipse;whiteSpace=wrap;html=1;" parent="1" vertex="1">
          <mxGeometry x="240" y="30" width="120" height="50" as="geometry" />
        </mxCell>
        <mxCell id="fnLCLla4h_GprAgN6roi-5" value="Quản lý phòng ban" style="ellipse;whiteSpace=wrap;html=1;" parent="1" vertex="1">
          <mxGeometry x="130" y="130" width="120" height="50" as="geometry" />
        </mxCell>
        <mxCell id="fnLCLla4h_GprAgN6roi-6" value="Quản lý chức vụ" style="ellipse;whiteSpace=wrap;html=1;" parent="1" vertex="1">
          <mxGeometry x="130" y="210" width="120" height="50" as="geometry" />
        </mxCell>
        <mxCell id="fnLCLla4h_GprAgN6roi-9" value="Báo cáo thống kê" style="ellipse;whiteSpace=wrap;html=1;" parent="1" vertex="1">
          <mxGeometry x="140" y="270" width="120" height="50" as="geometry" />
        </mxCell>
        <mxCell id="fnLCLla4h_GprAgN6roi-11" value="Quản lý đổi mật khẩu" style="ellipse;whiteSpace=wrap;html=1;" parent="1" vertex="1">
          <mxGeometry x="190" y="410" width="120" height="50" as="geometry" />
        </mxCell>
        <mxCell id="fnLCLla4h_GprAgN6roi-14" value="" style="endArrow=classic;html=1;rounded=0;" parent="1" source="fnLCLla4h_GprAgN6roi-1" target="fnLCLla4h_GprAgN6roi-3" edge="1">
          <mxGeometry width="50" height="50" relative="1" as="geometry">
            <mxPoint x="390" y="510" as="sourcePoint" />
            <mxPoint x="440" y="460" as="targetPoint" />
          </mxGeometry>
        </mxCell>
        <mxCell id="fnLCLla4h_GprAgN6roi-15" value="" style="endArrow=classic;html=1;rounded=0;" parent="1" source="fnLCLla4h_GprAgN6roi-1" target="fnLCLla4h_GprAgN6roi-5" edge="1">
          <mxGeometry width="50" height="50" relative="1" as="geometry">
            <mxPoint x="150" y="321" as="sourcePoint" />
            <mxPoint x="470" y="333" as="targetPoint" />
          </mxGeometry>
        </mxCell>
        <mxCell id="fnLCLla4h_GprAgN6roi-17" value="" style="endArrow=classic;html=1;rounded=0;" parent="1" source="fnLCLla4h_GprAgN6roi-1" target="fnLCLla4h_GprAgN6roi-6" edge="1">
          <mxGeometry width="50" height="50" relative="1" as="geometry">
            <mxPoint x="150" y="331" as="sourcePoint" />
            <mxPoint x="290" y="433" as="targetPoint" />
          </mxGeometry>
        </mxCell>
        <mxCell id="fnLCLla4h_GprAgN6roi-18" value="" style="endArrow=classic;html=1;rounded=0;" parent="1" source="fnLCLla4h_GprAgN6roi-1" target="fnLCLla4h_GprAgN6roi-11" edge="1">
          <mxGeometry width="50" height="50" relative="1" as="geometry">
            <mxPoint x="150" y="324" as="sourcePoint" />
            <mxPoint x="348" y="372" as="targetPoint" />
          </mxGeometry>
        </mxCell>
        <mxCell id="fnLCLla4h_GprAgN6roi-19" value="" style="endArrow=classic;html=1;rounded=0;" parent="1" source="fnLCLla4h_GprAgN6roi-1" target="fnLCLla4h_GprAgN6roi-9" edge="1">
          <mxGeometry width="50" height="50" relative="1" as="geometry">
            <mxPoint x="150" y="342" as="sourcePoint" />
            <mxPoint x="304" y="571" as="targetPoint" />
          </mxGeometry>
        </mxCell>
        <mxCell id="fnLCLla4h_GprAgN6roi-21" value="" style="endArrow=classic;html=1;rounded=0;" parent="1" source="fnLCLla4h_GprAgN6roi-1" target="fnLCLla4h_GprAgN6roi-4" edge="1">
          <mxGeometry width="50" height="50" relative="1" as="geometry">
            <mxPoint x="150" y="315" as="sourcePoint" />
            <mxPoint x="524" y="181" as="targetPoint" />
          </mxGeometry>
        </mxCell>
        <mxCell id="fnLCLla4h_GprAgN6roi-22" value="Xem thông tin cá nhân" style="ellipse;whiteSpace=wrap;html=1;" parent="1" vertex="1">
          <mxGeometry x="520" y="90" width="120" height="50" as="geometry" />
        </mxCell>
        <mxCell id="fnLCLla4h_GprAgN6roi-23" value="" style="endArrow=classic;html=1;rounded=0;" parent="1" source="fnLCLla4h_GprAgN6roi-2" target="fnLCLla4h_GprAgN6roi-22" edge="1">
          <mxGeometry width="50" height="50" relative="1" as="geometry">
            <mxPoint x="150" y="325" as="sourcePoint" />
            <mxPoint x="403" y="409" as="targetPoint" />
          </mxGeometry>
        </mxCell>
        <mxCell id="fnLCLla4h_GprAgN6roi-24" value="" style="endArrow=classic;html=1;rounded=0;" parent="1" source="fnLCLla4h_GprAgN6roi-2" target="fnLCLla4h_GprAgN6roi-11" edge="1">
          <mxGeometry width="50" height="50" relative="1" as="geometry">
            <mxPoint x="930" y="315" as="sourcePoint" />
            <mxPoint x="848" y="290" as="targetPoint" />
          </mxGeometry>
        </mxCell>
        <mxCell id="fnLCLla4h_GprAgN6roi-25" value="Đăng nhập" style="ellipse;whiteSpace=wrap;html=1;" parent="1" vertex="1">
          <mxGeometry x="430" y="210" width="120" height="50" as="geometry" />
        </mxCell>
        <mxCell id="fnLCLla4h_GprAgN6roi-26" value="" style="endArrow=classic;html=1;rounded=0;" parent="1" source="fnLCLla4h_GprAgN6roi-1" target="fnLCLla4h_GprAgN6roi-25" edge="1">
          <mxGeometry width="50" height="50" relative="1" as="geometry">
            <mxPoint x="150" y="321" as="sourcePoint" />
            <mxPoint x="261" y="330" as="targetPoint" />
          </mxGeometry>
        </mxCell>
        <mxCell id="fnLCLla4h_GprAgN6roi-27" value="" style="endArrow=classic;html=1;rounded=0;" parent="1" source="fnLCLla4h_GprAgN6roi-2" target="fnLCLla4h_GprAgN6roi-25" edge="1">
          <mxGeometry width="50" height="50" relative="1" as="geometry">
            <mxPoint x="930" y="315" as="sourcePoint" />
            <mxPoint x="848" y="290" as="targetPoint" />
          </mxGeometry>
        </mxCell>
        <mxCell id="fnLCLla4h_GprAgN6roi-28" value="include" style="html=1;verticalAlign=bottom;endArrow=open;dashed=1;endSize=8;curved=0;rounded=0;" parent="1" source="fnLCLla4h_GprAgN6roi-6" target="fnLCLla4h_GprAgN6roi-25" edge="1">
          <mxGeometry relative="1" as="geometry">
            <mxPoint x="450" y="360" as="sourcePoint" />
            <mxPoint x="370" y="360" as="targetPoint" />
          </mxGeometry>
        </mxCell>
        <mxCell id="fnLCLla4h_GprAgN6roi-29" value="include" style="html=1;verticalAlign=bottom;endArrow=open;dashed=1;endSize=8;curved=0;rounded=0;" parent="1" source="fnLCLla4h_GprAgN6roi-11" target="fnLCLla4h_GprAgN6roi-25" edge="1">
          <mxGeometry relative="1" as="geometry">
            <mxPoint x="359" y="316" as="sourcePoint" />
            <mxPoint x="462" y="264" as="targetPoint" />
          </mxGeometry>
        </mxCell>
        <mxCell id="fnLCLla4h_GprAgN6roi-30" value="include" style="html=1;verticalAlign=bottom;endArrow=open;dashed=1;endSize=8;curved=0;rounded=0;" parent="1" source="fnLCLla4h_GprAgN6roi-22" target="fnLCLla4h_GprAgN6roi-25" edge="1">
          <mxGeometry relative="1" as="geometry">
            <mxPoint x="500" y="420" as="sourcePoint" />
            <mxPoint x="500" y="270" as="targetPoint" />
          </mxGeometry>
        </mxCell>
        <mxCell id="fnLCLla4h_GprAgN6roi-31" value="include" style="html=1;verticalAlign=bottom;endArrow=open;dashed=1;endSize=8;curved=0;rounded=0;" parent="1" source="fnLCLla4h_GprAgN6roi-5" target="fnLCLla4h_GprAgN6roi-25" edge="1">
          <mxGeometry relative="1" as="geometry">
            <mxPoint x="730" y="245" as="sourcePoint" />
            <mxPoint x="560" y="245" as="targetPoint" />
          </mxGeometry>
        </mxCell>
        <mxCell id="fnLCLla4h_GprAgN6roi-32" value="include" style="html=1;verticalAlign=bottom;endArrow=open;dashed=1;endSize=8;curved=0;rounded=0;" parent="1" source="fnLCLla4h_GprAgN6roi-9" target="fnLCLla4h_GprAgN6roi-25" edge="1">
          <mxGeometry relative="1" as="geometry">
            <mxPoint x="351" y="208" as="sourcePoint" />
            <mxPoint x="449" y="232" as="targetPoint" />
          </mxGeometry>
        </mxCell>
        <mxCell id="fnLCLla4h_GprAgN6roi-34" value="include" style="html=1;verticalAlign=bottom;endArrow=open;dashed=1;endSize=8;curved=0;rounded=0;" parent="1" source="fnLCLla4h_GprAgN6roi-3" target="fnLCLla4h_GprAgN6roi-25" edge="1">
          <mxGeometry relative="1" as="geometry">
            <mxPoint x="373" y="595" as="sourcePoint" />
            <mxPoint x="491" y="270" as="targetPoint" />
          </mxGeometry>
        </mxCell>
        <mxCell id="fnLCLla4h_GprAgN6roi-35" value="include" style="html=1;verticalAlign=bottom;endArrow=open;dashed=1;endSize=8;curved=0;rounded=0;" parent="1" source="fnLCLla4h_GprAgN6roi-4" target="fnLCLla4h_GprAgN6roi-25" edge="1">
          <mxGeometry relative="1" as="geometry">
            <mxPoint x="268" y="124" as="sourcePoint" />
            <mxPoint x="462" y="226" as="targetPoint" />
          </mxGeometry>
        </mxCell>
        <mxCell id="fnLCLla4h_GprAgN6roi-41" value="Hệ thống quản lý nhân viên" style="shape=umlFrame;whiteSpace=wrap;html=1;pointerEvents=0;width=110;height=30;" parent="1" vertex="1">
          <mxGeometry x="-20" y="20" width="840" height="450" as="geometry" />
        </mxCell>
        <mxCell id="fnLCLla4h_GprAgN6roi-42" value="Tạo đơn xin nghỉ" style="ellipse;whiteSpace=wrap;html=1;" parent="1" vertex="1">
          <mxGeometry x="460" y="30" width="120" height="50" as="geometry" />
        </mxCell>
        <mxCell id="fnLCLla4h_GprAgN6roi-43" value="" style="endArrow=classic;html=1;rounded=0;" parent="1" source="fnLCLla4h_GprAgN6roi-2" target="fnLCLla4h_GprAgN6roi-42" edge="1">
          <mxGeometry width="50" height="50" relative="1" as="geometry">
            <mxPoint x="870" y="168" as="sourcePoint" />
            <mxPoint x="726" y="144" as="targetPoint" />
          </mxGeometry>
        </mxCell>
        <mxCell id="fnLCLla4h_GprAgN6roi-44" value="include" style="html=1;verticalAlign=bottom;endArrow=open;dashed=1;endSize=8;curved=0;rounded=0;" parent="1" source="fnLCLla4h_GprAgN6roi-42" target="fnLCLla4h_GprAgN6roi-25" edge="1">
          <mxGeometry relative="1" as="geometry">
            <mxPoint x="637" y="156" as="sourcePoint" />
            <mxPoint x="533" y="224" as="targetPoint" />
          </mxGeometry>
        </mxCell>
        <mxCell id="L-FR8A8K2TYK9zjWmDp6-2" value="Quản lý chấm công" style="ellipse;whiteSpace=wrap;html=1;" vertex="1" parent="1">
          <mxGeometry x="580" y="140" width="120" height="50" as="geometry" />
        </mxCell>
        <mxCell id="L-FR8A8K2TYK9zjWmDp6-4" value="" style="endArrow=classic;html=1;rounded=0;" edge="1" parent="1" source="fnLCLla4h_GprAgN6roi-2" target="L-FR8A8K2TYK9zjWmDp6-2">
          <mxGeometry width="50" height="50" relative="1" as="geometry">
            <mxPoint x="880" y="177" as="sourcePoint" />
            <mxPoint x="645" y="135" as="targetPoint" />
          </mxGeometry>
        </mxCell>
        <mxCell id="L-FR8A8K2TYK9zjWmDp6-5" value="include" style="html=1;verticalAlign=bottom;endArrow=open;dashed=1;endSize=8;curved=0;rounded=0;" edge="1" parent="1" source="L-FR8A8K2TYK9zjWmDp6-2" target="fnLCLla4h_GprAgN6roi-25">
          <mxGeometry relative="1" as="geometry">
            <mxPoint x="572" y="149" as="sourcePoint" />
            <mxPoint x="518" y="221" as="targetPoint" />
          </mxGeometry>
        </mxCell>
        <mxCell id="L-FR8A8K2TYK9zjWmDp6-6" value="Quản lý chấm công" style="ellipse;whiteSpace=wrap;html=1;" vertex="1" parent="1">
          <mxGeometry x="180" y="330" width="120" height="50" as="geometry" />
        </mxCell>
        <mxCell id="L-FR8A8K2TYK9zjWmDp6-7" value="" style="endArrow=classic;html=1;rounded=0;entryX=0.025;entryY=0.336;entryDx=0;entryDy=0;entryPerimeter=0;" edge="1" parent="1" source="fnLCLla4h_GprAgN6roi-1" target="L-FR8A8K2TYK9zjWmDp6-6">
          <mxGeometry width="50" height="50" relative="1" as="geometry">
            <mxPoint x="-70" y="167" as="sourcePoint" />
            <mxPoint x="171" y="286" as="targetPoint" />
          </mxGeometry>
        </mxCell>
        <mxCell id="L-FR8A8K2TYK9zjWmDp6-8" value="include" style="html=1;verticalAlign=bottom;endArrow=open;dashed=1;endSize=8;curved=0;rounded=0;" edge="1" parent="1" source="L-FR8A8K2TYK9zjWmDp6-6" target="fnLCLla4h_GprAgN6roi-25">
          <mxGeometry relative="1" as="geometry">
            <mxPoint x="264" y="294" as="sourcePoint" />
            <mxPoint x="446" y="256" as="targetPoint" />
          </mxGeometry>
        </mxCell>
      </root>
    </mxGraphModel>
  </diagram>
</mxfile>
